# xmcd
#
# Track frame offsets:
#	150
#	16539
#	30872
#	47904
#	64877
#	68139
#	97077
#	112818
#	133262
#	149056
#	152322
#	179576
#	198672
#	209487
#	241671
#	263168
#	276452
#
# Disc length: 3944 seconds
#
# Revision: 2
# Processed by: cddbd v1.5.1PL2 Copyright (c) Steve Scherf et al.
# Submitted via: EasyCDDAExtractor 8.0.2.1
#
DISCID=f90f6611
DTITLE=Alice Cooper - Roseland Ballroom New York City 31-10-01 Disc 1
DYEAR=2001
DGENRE=Hard Rock
TTITLE0=Sex Death and Money
TTITLE1=Brutal Planet - Dragontown - Sex Deatth and Money Reprise
TTITLE2=Sanctuary
TTITLE3=Eighteen
TTITLE4=Eighteen Continues
TTITLE5=Welcome To My Nightmare - Go To Hell
TTITLE6=Billion Dollar Babies
TTITLE7=Teenage Frankenstein
TTITLE8=Triggerman
TTITLE9=Jam
TTITLE10=Nurse Rozetta - Dead Babies
TTITLE11=Ballad Dwight Fry
TTITLE12=The Piece - I Love The Dead
TTITLE13=Devil's Food - Black Widow - Drum Solo
TTITLE14=No More Mr Nice Guy
TTITLE15=Is It My Body
TTITLE16=Fantasy Man
EXTD=
EXTT0=
EXTT1=
EXTT2=
EXTT3=
EXTT4=
EXTT5=
EXTT6=
EXTT7=
EXTT8=
EXTT9=
EXTT10=
EXTT11=
EXTT12=
EXTT13=
EXTT14=
EXTT15=
EXTT16=
PLAYORDER=
